<svg xmlns="http://www.w3.org/2000/svg" viewBox="0 0 22 22" class="design-iconfont">
  <path d="M11,2.25 L11,3.75 C6.99593556,3.75 3.75,6.99593556 3.75,11 C3.75,15.0040644 6.99593556,18.25 11,18.25 C15.0040644,18.25 18.25,15.0040644 18.25,11 L18.25,11 L19.75,11 C19.75,15.8324916 15.8324916,19.75 11,19.75 C6.16750844,19.75 2.25,15.8324916 2.25,11 C2.25,6.16750844 6.16750844,2.25 11,2.25 L11,2.25 Z M19.75,2.25 L19.75,8 L18.25,8 L18.2493398,4.749 L13,10 L11.9393398,8.93933983 L17.1283398,3.75 L14,3.75 L14,2.25 L19.75,2.25 Z" fill="#154A8B" fill-rule="nonzero"/>
</svg>
